<svg xmlns="http://www.w3.org/2000/svg" width="25.072" height="19.5" viewBox="0 0 25.072 19.5">
  <path id="Icon_awesome-shopping-basket" data-name="Icon awesome-shopping-basket" d="M25.072,10.259v.7A1.045,1.045,0,0,1,24.027,12h-.348l-1.137,7.956a2.089,2.089,0,0,1-2.068,1.794H4.6a2.089,2.089,0,0,1-2.068-1.794L1.393,12H1.045A1.045,1.045,0,0,1,0,10.955v-.7A1.045,1.045,0,0,1,1.045,9.214H3.976L8.624,2.824a1.393,1.393,0,0,1,2.253,1.638L7.42,9.214H17.651L14.2,4.462a1.393,1.393,0,0,1,2.253-1.638L21.1,9.214h2.931A1.045,1.045,0,0,1,25.072,10.259ZM13.58,17.92V13.045a1.045,1.045,0,0,0-2.089,0V17.92a1.045,1.045,0,1,0,2.089,0Zm4.875,0V13.045a1.045,1.045,0,0,0-2.089,0V17.92a1.045,1.045,0,1,0,2.089,0Zm-9.75,0V13.045a1.045,1.045,0,0,0-2.089,0V17.92a1.045,1.045,0,1,0,2.089,0Z" transform="translate(0 -2.25)" fill="#ac3232"/>
</svg>
