<svg xmlns="http://www.w3.org/2000/svg" width="40.392" height="43.625" viewBox="0 0 40.392 43.625">
  <g id="background" transform="translate(-328.01 -254.036)" opacity="0.55">
    <g id="Group_1" data-name="Group 1" transform="translate(328.009 274.629)">
      <path id="Path_1" data-name="Path 1" d="M400.144,469.343c7.208,6.928,17.816,9.354,20.533,9.785a23.043,23.043,0,0,0-27.43-19.209,20.208,20.208,0,0,0,27.621,21.064v-.03C405.9,479.118,400.144,469.343,400.144,469.343Z" transform="translate(-393.107 -459.442)" fill="#485368"/>
      <path id="Path_2" data-name="Path 2" d="M625.718,459.971a23.01,23.01,0,0,0-18.818,4.421,24.841,24.841,0,0,1,4.963,6.336c3.078-1.744,7.85-4.692,9.524-7.088-2.105,3.83-4.592,5.584-8.813,8.5a24.418,24.418,0,0,1,2.206,8.191,20.2,20.2,0,0,0,11.078-18.026A19.9,19.9,0,0,0,625.718,459.971Z" transform="translate(-585.466 -459.494)" fill="#485368"/>
    </g>
    <path id="Path_3" data-name="Path 3" d="M488.478,267.075l1.464,8.562a21.324,21.324,0,0,1,3.048,1.664l-2.707-10.617c2.035-.942,3.288-3.98,2.607-7.188-.752-3.549-3.589-5.955-6.336-5.374s-4.361,3.93-3.609,7.479C483.626,264.82,486,267.085,488.478,267.075Z" transform="translate(-145.762 0)" fill="#485368"/>
    <path id="Path_4" data-name="Path 4" d="M611.917,273.329l-2.516,9.885a21.187,21.187,0,0,1,2.978-1.584l1.353-7.92c2.246-.03,3.93-2.446,4.612-5.654a16.775,16.775,0,0,0,.371-5.654.3.3,0,0,0-.3-.241.311.311,0,0,0-.3.241l-1.394,6.547a.529.529,0,0,1-.241.341.542.542,0,0,1-.411.08l-.03-.01a.544.544,0,0,1-.421-.652L617,262.2a.6.6,0,0,0-.461-.712h-.01a.6.6,0,0,0-.712.451l-1.384,6.507a.577.577,0,0,1-.241.351.543.543,0,0,1-.411.08l-.03-.01a.544.544,0,0,1-.421-.652l1.384-6.507a.645.645,0,0,0-.08-.451.608.608,0,0,0-1.1.211l-1.383,6.5a.577.577,0,0,1-.241.351.543.543,0,0,1-.411.08l-.03-.01a.544.544,0,0,1-.421-.652l1.394-6.567a.316.316,0,0,0-.16-.341.31.31,0,0,0-.371.08c-1.163,1.374-1.895,4.151-2.145,5.324C609.089,269.449,609.651,272.336,611.917,273.329Z" transform="translate(-259.706 -6.083)" fill="#485368"/>
  </g>
</svg>
