<svg xmlns="http://www.w3.org/2000/svg" width="45.003" height="31.501" viewBox="0 0 45.003 31.501">
  <path id="Icon_awesome-box-open" data-name="Icon awesome-box-open" d="M29.932,18a3.408,3.408,0,0,1-2.911-1.645L22.5,8.859l-4.514,7.5a3.42,3.42,0,0,1-2.918,1.652,3.234,3.234,0,0,1-.935-.134L4.5,15.117V27.633a2.243,2.243,0,0,0,1.7,2.18l15.2,3.8a4.571,4.571,0,0,0,2.18,0l15.216-3.8a2.255,2.255,0,0,0,1.7-2.18V15.117l-9.633,2.749A3.234,3.234,0,0,1,29.932,18ZM44.88,10.111,41.259,2.883a1.148,1.148,0,0,0-1.174-.626L22.5,4.5l6.448,10.695a1.156,1.156,0,0,0,1.3.513l13.915-3.973a1.158,1.158,0,0,0,.717-1.624ZM3.741,2.883.12,10.111a1.146,1.146,0,0,0,.71,1.617L14.745,15.7a1.156,1.156,0,0,0,1.3-.513L22.5,4.5,4.908,2.257a1.149,1.149,0,0,0-1.167.626Z" transform="translate(0.003 -2.247)" fill="#5a5a5a" opacity="0.33"/>
</svg>
