<svg xmlns="http://www.w3.org/2000/svg" width="44.075" height="35.26" viewBox="0 0 44.075 35.26">
  <path id="Icon_awesome-car-alt" data-name="Icon awesome-car-alt" d="M40.279,18.12l-1.032-2.58-1.83-4.576A10.234,10.234,0,0,0,27.868,4.5H16.207a10.235,10.235,0,0,0-9.549,6.464L4.828,15.54,3.8,18.12A5.864,5.864,0,0,0,0,23.6v4.407a5.829,5.829,0,0,0,1.469,3.85v4.965A2.939,2.939,0,0,0,4.407,39.76H7.346a2.939,2.939,0,0,0,2.938-2.938V33.883H33.791v2.938a2.939,2.939,0,0,0,2.938,2.938h2.938a2.939,2.939,0,0,0,2.938-2.938V31.857a5.825,5.825,0,0,0,1.469-3.85V23.6A5.864,5.864,0,0,0,40.279,18.12ZM12.114,13.147a4.408,4.408,0,0,1,4.093-2.77H27.868a4.408,4.408,0,0,1,4.093,2.77l1.83,4.576H10.284l1.83-4.576ZM7.346,27.988a2.772,2.772,0,0,1-2.938-2.929A2.772,2.772,0,0,1,7.346,22.13c1.763,0,4.407,2.636,4.407,4.394S9.109,27.988,7.346,27.988Zm29.383,0c-1.763,0-4.407.293-4.407-1.465s2.644-4.394,4.407-4.394a2.772,2.772,0,0,1,2.938,2.929,2.772,2.772,0,0,1-2.938,2.929Z" transform="translate(0 -4.5)" fill="#5a5a5a" opacity="0.33"/>
</svg>
