<svg xmlns="http://www.w3.org/2000/svg" width="40.5" height="31.5" viewBox="0 0 40.5 31.5">
  <path id="Icon_awesome-credit-card" data-name="Icon awesome-credit-card" d="M0,30.375A3.376,3.376,0,0,0,3.375,33.75h33.75A3.376,3.376,0,0,0,40.5,30.375V18H0Zm13.5-4.781a.846.846,0,0,1,.844-.844h9.563a.846.846,0,0,1,.844.844v2.813a.846.846,0,0,1-.844.844H14.344a.846.846,0,0,1-.844-.844Zm-9,0a.846.846,0,0,1,.844-.844h5.063a.846.846,0,0,1,.844.844v2.813a.846.846,0,0,1-.844.844H5.344a.846.846,0,0,1-.844-.844Zm36-19.969V9H0V5.625A3.376,3.376,0,0,1,3.375,2.25h33.75A3.376,3.376,0,0,1,40.5,5.625Z" transform="translate(0 -2.25)" fill="#5a5a5a" opacity="0.33"/>
</svg>
