<svg xmlns="http://www.w3.org/2000/svg" width="34.56" height="34.56" viewBox="0 0 34.56 34.56">
  <path id="Icon_map-health" data-name="Icon map-health" d="M35.28,12.24a.722.722,0,0,0-.72-.72H25.2a.722.722,0,0,1-.72-.72V1.44a.722.722,0,0,0-.72-.72H12.24a.722.722,0,0,0-.72.72V10.8a.722.722,0,0,1-.72.72H1.44a.722.722,0,0,0-.72.72V23.76a.722.722,0,0,0,.72.72H10.8a.722.722,0,0,1,.72.72v9.36a.722.722,0,0,0,.72.72H23.76a.722.722,0,0,0,.72-.72V25.2a.722.722,0,0,1,.72-.72h9.36a.722.722,0,0,0,.72-.72Z" transform="translate(-0.72 -0.72)" fill="#5a5a5a" opacity="0.33"/>
</svg>
