<svg xmlns="http://www.w3.org/2000/svg" width="31.5" height="31.5" viewBox="0 0 31.5 31.5">
  <path id="Icon_awesome-app-store-ios" data-name="Icon awesome-app-store-ios" d="M28.125,2.25H3.375A3.376,3.376,0,0,0,0,5.625v24.75A3.376,3.376,0,0,0,3.375,33.75h24.75A3.376,3.376,0,0,0,31.5,30.375V5.625A3.376,3.376,0,0,0,28.125,2.25ZM8.93,27.035A1.405,1.405,0,0,1,6.5,25.629L7.5,23.892a2.413,2.413,0,0,1,2.784.8Zm9.766-3.79H5.906a1.406,1.406,0,0,1,0-2.812H9.492l4.6-7.959L12.649,9.984a1.405,1.405,0,0,1,2.433-1.406l.626,1.083.626-1.083a1.405,1.405,0,1,1,2.433,1.406L12.734,20.433H17.1a1.929,1.929,0,0,1,1.6,2.813Zm6.9,0H23.555l1.378,2.384A1.405,1.405,0,1,1,22.5,27.035q-3.47-6-5.2-9.007a3.89,3.89,0,0,1,.5-4.767q1.382,2.394,4.141,7.172h3.656a1.406,1.406,0,0,1,0,2.813Z" transform="translate(0 -2.25)" fill="#485368"/>
</svg>
