<svg xmlns="http://www.w3.org/2000/svg" width="52.138" height="54.134" viewBox="0 0 52.138 54.134">
  <g id="background" transform="translate(-300.9 -254.036)">
    <g id="Group_1" data-name="Group 1" transform="translate(309.021 272.126)">
      <path id="Path_1" data-name="Path 1" d="M399.289,468.14c6.332,6.086,15.65,8.217,18.037,8.6a20.242,20.242,0,0,0-24.1-16.874,17.751,17.751,0,0,0,24.263,18.5v-.026C404.344,476.727,399.289,468.14,399.289,468.14Z" transform="translate(-393.107 -459.442)" fill="#4f921c"/>
      <path id="Path_2" data-name="Path 2" d="M623.431,459.914A20.213,20.213,0,0,0,606.9,463.8a21.82,21.82,0,0,1,4.359,5.566c2.7-1.532,6.9-4.122,8.367-6.227-1.849,3.364-4.034,4.906-7.741,7.468a21.45,21.45,0,0,1,1.938,7.2,17.742,17.742,0,0,0,9.732-15.835A17.477,17.477,0,0,0,623.431,459.914Z" transform="translate(-588.071 -459.495)" fill="#4f921c"/>
    </g>
    <path id="Path_3" data-name="Path 3" d="M487.783,265.49l1.286,7.521a18.731,18.731,0,0,1,2.677,1.462l-2.378-9.327c1.788-.828,2.889-3.5,2.29-6.315-.661-3.118-3.153-5.231-5.566-4.721s-3.831,3.452-3.171,6.57C483.521,263.509,485.608,265.5,487.783,265.49Z" transform="translate(-165.843 0)" fill="#4f921c"/>
    <path id="Path_4" data-name="Path 4" d="M611.611,271.805l-2.211,8.684a18.608,18.608,0,0,1,2.616-1.392l1.189-6.958c1.973-.026,3.452-2.149,4.051-4.967a14.735,14.735,0,0,0,.326-4.967.265.265,0,0,0-.264-.211.273.273,0,0,0-.264.211l-1.224,5.751a.465.465,0,0,1-.211.3.477.477,0,0,1-.361.07l-.026-.009a.478.478,0,0,1-.37-.572l1.215-5.716a.53.53,0,0,0-.405-.625h-.009a.567.567,0,0,0-.4.07.573.573,0,0,0-.229.326l-1.215,5.716a.507.507,0,0,1-.211.308.477.477,0,0,1-.361.07l-.026-.009a.478.478,0,0,1-.37-.572l1.215-5.716a.567.567,0,0,0-.07-.4.534.534,0,0,0-.969.185l-1.215,5.707a.507.507,0,0,1-.211.308.477.477,0,0,1-.361.07l-.026-.009a.478.478,0,0,1-.37-.572l1.224-5.769a.278.278,0,0,0-.141-.3.272.272,0,0,0-.326.07,12.578,12.578,0,0,0-1.885,4.677C609.127,268.4,609.62,270.933,611.611,271.805Z" transform="translate(-281.33 -6.165)" fill="#4f921c"/>
    <g id="Group_2" data-name="Group 2" transform="translate(300.9 296.438)">
      <path id="Path_5" data-name="Path 5" d="M307.417,780.2h-4.042a1.758,1.758,0,0,0,.352,1.074,1.334,1.334,0,0,0,1.066.387,4.164,4.164,0,0,0,.863-.106,8.156,8.156,0,0,0,1.118-.343,2.435,2.435,0,0,1,.634,1.427,5.11,5.11,0,0,1-3.047.889,3.91,3.91,0,0,1-1.638-.308,2.754,2.754,0,0,1-1.074-.872,3.473,3.473,0,0,1-.581-1.321,7.615,7.615,0,0,1-.167-1.665,5.849,5.849,0,0,1,.211-1.612,3.819,3.819,0,0,1,.634-1.286,2.98,2.98,0,0,1,1.083-.854,3.933,3.933,0,0,1,2.9-.062,3.071,3.071,0,0,1,1.022.687,2.916,2.916,0,0,1,.643,1.039,3.783,3.783,0,0,1,.229,1.321A5.55,5.55,0,0,1,307.417,780.2Zm-4.06-1.673h2.034v-.167a1.7,1.7,0,0,0-.255-.951.863.863,0,0,0-.766-.37.818.818,0,0,0-.731.352A2.353,2.353,0,0,0,303.357,778.523Z" transform="translate(-300.9 -771.795)" fill="#4f921c"/>
      <path id="Path_6" data-name="Path 6" d="M393.024,779.064v-.2a3.2,3.2,0,0,0-.185-1.268.7.7,0,0,0-.7-.4.76.76,0,0,0-.757.537,5.282,5.282,0,0,0-.22,1.779,4.969,4.969,0,0,0,.088,1.039,2.024,2.024,0,0,0,.247.678.927.927,0,0,0,.414.37,1.357,1.357,0,0,0,.59.115,2.342,2.342,0,0,0,.793-.159,4.6,4.6,0,0,0,.934-.493,1.264,1.264,0,0,1,.291.229,2.649,2.649,0,0,1,.273.335,2.864,2.864,0,0,1,.22.4,3.1,3.1,0,0,1,.141.4,3.681,3.681,0,0,1-1.339.872,4.466,4.466,0,0,1-1.682.326,3.094,3.094,0,0,1-2.545-1.083,4.771,4.771,0,0,1-.889-3.091,5.007,5.007,0,0,1,.291-1.788,3.84,3.84,0,0,1,.757-1.259,3.068,3.068,0,0,1,1.092-.749,3.342,3.342,0,0,1,1.286-.247,4.007,4.007,0,0,1,1.251.185,2.9,2.9,0,0,1,.978.528,2.39,2.39,0,0,1,.634.819,2.435,2.435,0,0,1,.229,1.048,1.034,1.034,0,0,1-.379.916,1.607,1.607,0,0,1-.942.264A3.776,3.776,0,0,1,393.024,779.064Z" transform="translate(-380.967 -771.886)" fill="#4f921c"/>
      <path id="Path_7" data-name="Path 7" d="M477.059,776.225a4.323,4.323,0,0,1,1.118,3.2,5.6,5.6,0,0,1-.238,1.691,3.648,3.648,0,0,1-.7,1.295,2.915,2.915,0,0,1-1.127.819,3.849,3.849,0,0,1-1.541.291,3.634,3.634,0,0,1-1.532-.3,3.172,3.172,0,0,1-1.118-.828,3.661,3.661,0,0,1-.7-1.295,5.631,5.631,0,0,1-.229-1.682,5.842,5.842,0,0,1,.229-1.682,3.646,3.646,0,0,1,.687-1.295,2.95,2.95,0,0,1,1.118-.837,3.848,3.848,0,0,1,1.541-.3A3.449,3.449,0,0,1,477.059,776.225Zm-2.475.9a.851.851,0,0,0-.555.167,1.067,1.067,0,0,0-.335.44,2.632,2.632,0,0,0-.176.643,5.533,5.533,0,0,0-.044.784c0,.432.009.81.035,1.127a2.994,2.994,0,0,0,.159.793,1.018,1.018,0,0,0,.326.476.9.9,0,0,0,.555.159.88.88,0,0,0,.907-.6,5.056,5.056,0,0,0,.22-1.7,4.952,4.952,0,0,0-.22-1.7A.844.844,0,0,0,474.584,777.123Z" transform="translate(-456.019 -771.795)" fill="#4f921c"/>
      <path id="Path_8" data-name="Path 8" d="M558.236,746.993v-6.077l-1.339.018a3.6,3.6,0,0,1-.1-.845,3.809,3.809,0,0,1,.1-.863l1.215.018a7.635,7.635,0,0,1-.079-1.039,2.608,2.608,0,0,1,2.721-2.7,6.717,6.717,0,0,1,2.378.432,2.514,2.514,0,0,1-.141.881,1.913,1.913,0,0,1-.388.722,4.585,4.585,0,0,0-1.2-.22.934.934,0,0,0-1.039,1.074,5.643,5.643,0,0,0,.062.872l2.034-.035a3.809,3.809,0,0,1,.1.863,3.6,3.6,0,0,1-.1.845L560.6,740.9v6.095a6.742,6.742,0,0,1-1.162.1A7.415,7.415,0,0,1,558.236,746.993Z" transform="translate(-534.263 -735.5)" fill="#4f921c"/>
      <path id="Path_9" data-name="Path 9" d="M631.151,776.225a4.323,4.323,0,0,1,1.118,3.2,5.6,5.6,0,0,1-.238,1.691,3.648,3.648,0,0,1-.7,1.295,2.915,2.915,0,0,1-1.127.819,3.85,3.85,0,0,1-1.541.291,3.634,3.634,0,0,1-1.532-.3,3.172,3.172,0,0,1-1.118-.828,3.51,3.51,0,0,1-.687-1.295,5.63,5.63,0,0,1-.229-1.682,5.844,5.844,0,0,1,.229-1.682,3.646,3.646,0,0,1,.687-1.295,2.95,2.95,0,0,1,1.118-.837,3.849,3.849,0,0,1,1.541-.3A3.442,3.442,0,0,1,631.151,776.225Zm-2.475.9a.851.851,0,0,0-.555.167,1.068,1.068,0,0,0-.335.44,2.634,2.634,0,0,0-.176.643,5.542,5.542,0,0,0-.044.784c0,.432.009.81.035,1.127a2.994,2.994,0,0,0,.159.793,1.018,1.018,0,0,0,.326.476.9.9,0,0,0,.555.159.88.88,0,0,0,.907-.6,5.057,5.057,0,0,0,.22-1.7,4.954,4.954,0,0,0-.22-1.7A.844.844,0,0,0,628.676,777.123Z" transform="translate(-596.547 -771.795)" fill="#4f921c"/>
      <path id="Path_10" data-name="Path 10" d="M723.25,776.225a4.323,4.323,0,0,1,1.119,3.2,5.6,5.6,0,0,1-.238,1.691,3.648,3.648,0,0,1-.7,1.295,2.914,2.914,0,0,1-1.127.819,3.849,3.849,0,0,1-1.541.291,3.634,3.634,0,0,1-1.532-.3,3.171,3.171,0,0,1-1.118-.828,3.511,3.511,0,0,1-.687-1.295,5.632,5.632,0,0,1-.229-1.682,5.842,5.842,0,0,1,.229-1.682,3.646,3.646,0,0,1,.687-1.295,2.949,2.949,0,0,1,1.118-.837,3.849,3.849,0,0,1,1.541-.3A3.442,3.442,0,0,1,723.25,776.225Zm-2.475.9a.851.851,0,0,0-.555.167,1.068,1.068,0,0,0-.335.44,2.629,2.629,0,0,0-.176.643,5.533,5.533,0,0,0-.044.784c0,.432.009.81.035,1.127a3,3,0,0,0,.159.793,1.018,1.018,0,0,0,.326.476.9.9,0,0,0,.555.159.88.88,0,0,0,.907-.6,5.055,5.055,0,0,0,.22-1.7,4.952,4.952,0,0,0-.22-1.7A.851.851,0,0,0,720.776,777.123Z" transform="translate(-680.536 -771.795)" fill="#4f921c"/>
      <path id="Path_11" data-name="Path 11" d="M812.518,739.723a3.252,3.252,0,0,1,1.444.343v-3.761l.1-.106H815a1.313,1.313,0,0,1,1.03.326,1.727,1.727,0,0,1,.291,1.136V745.4a1.258,1.258,0,0,0,.432,1.119,2.441,2.441,0,0,1-.3.7,1.71,1.71,0,0,1-.449.546,1.876,1.876,0,0,1-1.665-.872,2.985,2.985,0,0,1-2.237.978,2.251,2.251,0,0,1-2.008-1.083,5.467,5.467,0,0,1-.7-2.986,5.542,5.542,0,0,1,.238-1.682,3.937,3.937,0,0,1,.661-1.286,3.014,3.014,0,0,1,.986-.819A2.757,2.757,0,0,1,812.518,739.723Zm.3,6.191a1.46,1.46,0,0,0,1.145-.608v-3.4a2.255,2.255,0,0,0-1.022-.37c-.713,0-1.066.775-1.066,2.334C811.884,745.227,812.192,745.914,812.817,745.914Z" transform="translate(-764.616 -736.138)" fill="#4f921c"/>
    </g>
  </g>
</svg>
