<svg id="Icon_ionic-ios-mail" data-name="Icon ionic-ios-mail" xmlns="http://www.w3.org/2000/svg" width="10.889" height="7.538" viewBox="0 0 10.889 7.538">
  <path id="Path_12" data-name="Path 12" d="M14.175,10.33,11.359,13.2a.051.051,0,0,0,0,.073l1.971,2.1a.34.34,0,0,1,0,.482.341.341,0,0,1-.482,0l-1.963-2.091a.054.054,0,0,0-.076,0l-.479.487a2.108,2.108,0,0,1-1.5.633,2.15,2.15,0,0,1-1.534-.652l-.461-.469a.054.054,0,0,0-.076,0L4.794,15.853a.341.341,0,0,1-.482,0,.34.34,0,0,1,0-.482l1.971-2.1a.056.056,0,0,0,0-.073L3.464,10.33a.052.052,0,0,0-.089.037v5.74a.84.84,0,0,0,.838.838h9.214a.84.84,0,0,0,.838-.838v-5.74A.052.052,0,0,0,14.175,10.33Z" transform="translate(-3.375 -9.406)" fill="#5d687d"/>
  <path id="Path_13" data-name="Path 13" d="M9.354,12.668a1.423,1.423,0,0,0,1.023-.429l4.107-4.18a.823.823,0,0,0-.518-.183H4.744a.817.817,0,0,0-.518.183l4.107,4.18A1.423,1.423,0,0,0,9.354,12.668Z" transform="translate(-3.909 -7.875)" fill="#5d687d"/>
</svg>
