<svg xmlns="http://www.w3.org/2000/svg" width="38.196" height="33.952" viewBox="0 0 38.196 33.952">
  <path id="Icon_awesome-shopping-cart" data-name="Icon awesome-shopping-cart" d="M35.021,19.981,38.156,6.188A1.592,1.592,0,0,0,36.6,4.244H10.557L9.95,1.273A1.591,1.591,0,0,0,8.39,0h-6.8A1.591,1.591,0,0,0,0,1.591V2.652A1.591,1.591,0,0,0,1.591,4.244H6.226l4.658,22.774a3.714,3.714,0,1,0,4.446.568h13.9a3.713,3.713,0,1,0,4.217-.69l.366-1.61a1.592,1.592,0,0,0-1.552-1.944h-17.8L14.03,21.22H33.469A1.591,1.591,0,0,0,35.021,19.981Z" fill="#5a5a5a" opacity="0.33"/>
</svg>
